<svg width="50" height="50" viewBox="0 0 50 50" fill="none" xmlns="http://www.w3.org/2000/svg">
<g clip-path="url(#clip0)">
<path d="M0 5C0 2.23858 2.23858 0 5 0H45C47.7614 0 50 2.23858 50 5V45C50 47.7614 47.7614 50 45 50H5C2.23858 50 0 47.7614 0 45V5Z" fill="#FF8C00"/>
<path d="M34.112 41.752C33.376 42.296 32.464 42.712 31.376 43C30.32 43.256 29.2 43.384 28.016 43.384C24.944 43.384 22.56 42.6 20.864 41.032C19.2 39.464 18.368 37.16 18.368 34.12V23.512H14.384V17.752H18.368V11.464H25.856V17.752H32.288V23.512H25.856V34.024C25.856 35.112 26.128 35.96 26.672 36.568C27.248 37.144 28.048 37.432 29.072 37.432C30.256 37.432 31.264 37.112 32.096 36.472L34.112 41.752Z" fill="white"/>
</g>
<defs>
<clipPath id="clip0">
<path d="M0 5C0 2.23858 2.23858 0 5 0H45C47.7614 0 50 2.23858 50 5V45C50 47.7614 47.7614 50 45 50H5C2.23858 50 0 47.7614 0 45V5Z" fill="white"/>
</clipPath>
</defs>
</svg>
