<svg width="60" height="60" viewBox="0 0 60 60" fill="none" xmlns="http://www.w3.org/2000/svg">
<path d="M0 5C0 2.23858 2.23858 0 5 0H55C57.7614 0 60 2.23858 60 5V55C60 57.7614 57.7614 60 55 60H5C2.23858 60 0 57.7614 0 55V5Z" fill="#FF8C00"/>
<path d="M39.112 46.752C38.376 47.296 37.464 47.712 36.376 48C35.32 48.256 34.2 48.384 33.016 48.384C29.944 48.384 27.56 47.6 25.864 46.032C24.2 44.464 23.368 42.16 23.368 39.12V28.512H19.384V22.752H23.368V16.464H30.856V22.752H37.288V28.512H30.856V39.024C30.856 40.112 31.128 40.96 31.672 41.568C32.248 42.144 33.048 42.432 34.072 42.432C35.256 42.432 36.264 42.112 37.096 41.472L39.112 46.752Z" fill="white"/>
</svg>
