<svg width="80" height="80" viewBox="0 0 80 80" fill="none" xmlns="http://www.w3.org/2000/svg">
<g clip-path="url(#clip0)">
<path d="M0 5C0 2.23858 2.23858 0 5 0H35C37.7614 0 40 2.23858 40 5V35C40 37.7614 37.7614 40 35 40H5C2.23858 40 0 37.7614 0 35V5Z" fill="#FF8C00"/>
<path d="M27.922 33.012C27.3393 33.4427 26.6173 33.772 25.756 34C24.92 34.2027 24.0333 34.304 23.096 34.304C20.664 34.304 18.7767 33.6833 17.434 32.442C16.1167 31.2007 15.458 29.3767 15.458 26.97V18.572H12.304V14.012H15.458V9.034H21.386V14.012H26.478V18.572H21.386V26.894C21.386 27.7553 21.6013 28.4267 22.032 28.908C22.488 29.364 23.1213 29.592 23.932 29.592C24.8693 29.592 25.6673 29.3387 26.326 28.832L27.922 33.012Z" fill="white"/>
</g>
<defs>
<clipPath id="clip0">
<path d="M0 5C0 2.23858 2.23858 0 5 0H35C37.7614 0 40 2.23858 40 5V35C40 37.7614 37.7614 40 35 40H5C2.23858 40 0 37.7614 0 35V5Z" fill="white"/>
</clipPath>
</defs>
</svg>
